mtllib Models/Track/Empty/PlaceholderGhost.mtl

v 4.000000 0.500000 -4.000000
v 4.000000 -0.500000 -4.000000
v 4.000000 0.500000 4.000000
v 4.000000 -0.500000 4.000000
v -4.000000 0.500000 -4.000000
v -4.000000 -0.500000 -4.000000
v -4.000000 0.500000 4.000000
v -4.000000 -0.500000 4.000000

vt 0.320177 0.075246
vt 0.320177 0.075246
vt 0.320177 0.075246
vt 0.320177 0.075246
vt 0.320177 0.075246
vt 0.320177 0.075246
vt 0.320177 0.075246
vt 0.320177 0.075246

vn 0.0000 1.0000 0.0000
vn 0.0000 0.0000 1.0000
vn -1.0000 0.0000 0.0000
vn 0.0000 -1.0000 0.0000
vn 1.0000 0.0000 0.0000
vn 0.0000 0.0000 -1.0000

f 5/1/1 3/2/1 1/3/1
f 3/2/2 8/4/2 4/5/2
f 7/6/3 6/7/3 8/4/3
f 2/8/4 8/4/4 6/7/4
f 1/3/5 4/5/5 2/8/5
f 5/1/6 2/8/6 6/7/6
f 5/1/1 7/6/1 3/2/1
f 3/2/2 7/6/2 8/4/2
f 7/6/3 5/1/3 6/7/3
f 2/8/4 4/5/4 8/4/4
f 1/3/5 3/2/5 4/5/5
f 5/1/6 1/3/6 2/8/6
