mtllib Models/Track/Straight/StraightTrack.mtl

v 4.000000 0.000000 -3.000000
v 3.000000 0.000002 -4.000000
v 3.000000 0.000000 -3.000000
v 0.000000 0.000000 -3.000000
v -1.000000 0.000002 -4.000000
v -1.000000 0.000000 -3.000000
v -2.000000 0.000000 -3.000000
v -3.000000 0.000002 -4.000000
v -3.000000 0.000000 -3.000000
v 2.000000 0.000000 -3.000000
v 1.000000 0.000002 -4.000000
v 1.000000 0.000000 -3.000000
v 0.000000 0.000002 -4.000000
v 1.000000 0.368989 -3.000000
v 1.500000 0.368989 -3.000000
v -4.000000 0.000002 -4.000000
v -4.000000 0.000000 -3.000000
v 0.000000 0.368989 -3.000000
v 0.500000 0.368989 -3.000000
v -3.000000 0.368989 -3.000000
v -2.500000 0.368989 -3.000000
v 3.000000 0.368989 -3.000000
v 3.500000 0.368989 -3.000000
v -4.000000 0.368989 -3.000000
v -3.500000 0.368989 -3.000000
v 2.000000 0.368989 -3.000000
v 2.500000 0.368989 -3.000000
v -1.000000 0.368989 -3.000000
v -0.500000 0.368989 -3.000000
v -4.000000 0.000000 0.000000
v -4.000000 0.094239 -1.000000
v -4.000000 0.000000 -1.000000
v -2.000000 0.368989 -3.000000
v -1.500000 0.368989 -3.000000
v -4.000000 0.000000 -2.000000
v -4.000000 0.209268 -2.000000
v -4.000000 0.420286 -2.500000
v 4.000000 0.368989 -3.000000
v 4.000000 0.420286 -2.500000
v -2.000000 0.000002 -4.000000
v 4.000000 0.000000 -2.000000
v 4.000000 0.094239 -1.000000
v 4.000000 0.000000 -1.000000
v 4.000000 0.094239 0.000000
v 4.000000 0.000000 0.000000
v 2.000000 0.000002 -4.000000
v -2.000000 0.094239 -1.000000
v -2.000000 0.209268 -2.000000
v -2.500000 0.209268 -2.000000
v 0.000000 0.094239 -1.000000
v 0.000000 0.209268 -2.000000
v -0.500000 0.209268 -2.000000
v 2.000000 0.094239 -1.000000
v 2.000000 0.209268 -2.000000
v 1.500000 0.209268 -2.000000
v 4.000000 0.209268 -2.000000
v 3.500000 0.209268 -2.000000
v 3.000000 0.094239 -1.000000
v 3.000000 0.209268 -2.000000
v 2.500000 0.209268 -2.000000
v 3.000000 0.094239 0.000000
v 2.000000 0.094239 0.000000
v 1.000000 0.094239 -1.000000
v 1.000000 0.209268 -2.000000
v 0.500000 0.209268 -2.000000
v 1.000000 0.094239 0.000000
v 0.000000 0.094239 0.000000
v 1.000000 0.420286 -2.500000
v 0.500000 0.420286 -2.500000
v 2.000000 0.420286 -2.500000
v 1.500000 0.420286 -2.500000
v -1.000000 0.094239 -1.000000
v -1.000000 0.209268 -2.000000
v -1.500000 0.209268 -2.000000
v -1.000000 0.094239 0.000000
v -2.000000 0.094239 0.000000
v -3.000000 0.094239 -1.000000
v -3.000000 0.209268 -2.000000
v -3.500000 0.209268 -2.000000
v -3.000000 0.094239 0.000000
v -4.000000 0.094239 0.000000
v -3.000000 0.420286 -2.500000
v -3.500000 0.420286 -2.500000
v -2.000000 0.420286 -2.500000
v -2.500000 0.420286 -2.500000
v -1.000000 0.420286 -2.500000
v -1.500000 0.420286 -2.500000
v 0.000000 0.420286 -2.500000
v -0.500000 0.420286 -2.500000
v 3.000000 0.420286 -2.500000
v 2.500000 0.420286 -2.500000
v 3.500000 0.420286 -2.500000
v 3.000000 -0.000002 4.000000
v 4.000000 -0.000000 3.000000
v 3.000000 -0.000000 3.000000
v -1.000000 -0.000002 4.000000
v 0.000000 -0.000000 3.000000
v -1.000000 -0.000000 3.000000
v -3.000000 -0.000002 4.000000
v -2.000000 -0.000000 3.000000
v -3.000000 -0.000000 3.000000
v 1.000000 -0.000002 4.000000
v 2.000000 -0.000000 3.000000
v 1.000000 -0.000000 3.000000
v 0.000000 -0.000002 4.000000
v 1.500000 0.368989 3.000000
v 1.000000 0.368989 3.000000
v -4.000000 -0.000002 4.000000
v -4.000000 -0.000000 3.000000
v 0.500000 0.368989 3.000000
v 0.000000 0.368989 3.000000
v -2.500000 0.368989 3.000000
v -3.000000 0.368989 3.000000
v 3.500000 0.368989 3.000000
v 3.000000 0.368989 3.000000
v -3.500000 0.368989 3.000000
v -4.000000 0.368989 3.000000
v 2.500000 0.368989 3.000000
v 2.000000 0.368989 3.000000
v -0.500000 0.368989 3.000000
v -1.000000 0.368989 3.000000
v -4.000000 0.094239 1.000000
v -4.000000 -0.000000 1.000000
v -1.500000 0.368989 3.000000
v -2.000000 0.368989 3.000000
v -4.000000 -0.000000 2.000000
v -4.000000 0.420286 2.500000
v -4.000000 0.209268 2.000000
v 4.000000 0.420286 2.500000
v 4.000000 0.368989 3.000000
v -2.000000 -0.000002 4.000000
v 4.000000 0.094239 1.000000
v 4.000000 -0.000000 2.000000
v 4.000000 -0.000000 1.000000
v 2.000000 -0.000002 4.000000
v -2.500000 0.209268 2.000000
v -2.000000 0.209268 2.000000
v -2.000000 0.094239 1.000000
v -0.500000 0.209268 2.000000
v 0.000000 0.209268 2.000000
v 0.000000 0.094239 1.000000
v 1.500000 0.209268 2.000000
v 2.000000 0.209268 2.000000
v 2.000000 0.094239 1.000000
v 3.500000 0.209268 2.000000
v 4.000000 0.209268 2.000000
v 2.500000 0.209268 2.000000
v 3.000000 0.209268 2.000000
v 3.000000 0.094239 1.000000
v 0.500000 0.209268 2.000000
v 1.000000 0.209268 2.000000
v 1.000000 0.094239 1.000000
v 1.000000 0.420286 2.500000
v 0.500000 0.420286 2.500000
v 2.000000 0.420286 2.500000
v 1.500000 0.420286 2.500000
v -1.500000 0.209268 2.000000
v -1.000000 0.209268 2.000000
v -1.000000 0.094239 1.000000
v -3.500000 0.209268 2.000000
v -3.000000 0.209268 2.000000
v -3.000000 0.094239 1.000000
v -3.000000 0.420286 2.500000
v -3.500000 0.420286 2.500000
v -2.000000 0.420286 2.500000
v -2.500000 0.420286 2.500000
v -1.000000 0.420286 2.500000
v -1.500000 0.420286 2.500000
v 0.000000 0.420286 2.500000
v -0.500000 0.420286 2.500000
v 3.000000 0.420286 2.500000
v 2.500000 0.420286 2.500000
v 3.500000 0.420286 2.500000
v 4.000000 0.000002 -4.000000
v 4.000000 -0.000002 4.000000
vt 0.940480 0.813980
vt 0.940480 0.813980
vt 0.940480 0.813980
vt 0.940480 0.813980
vt 0.940480 0.813980
vt 0.940480 0.813980
vt 0.940480 0.813980
vt 0.940480 0.813980
vt 0.940480 0.813980
vt 0.940480 0.813980
vt 0.940480 0.813980
vt 0.940480 0.813980
vt 0.940480 0.813980
vt 0.929688 0.074219
vt 0.929688 0.074219
vt 0.929688 0.074219
vt 0.940480 0.813980
vt 0.940480 0.813980
vt 0.929688 0.074219
vt 0.929688 0.074219
vt 0.929688 0.074219
vt 0.929688 0.074219
vt 0.929688 0.074219
vt 0.929688 0.074219
vt 0.929688 0.074219
vt 0.929688 0.074219
vt 0.929688 0.074219
vt 0.929688 0.074219
vt 0.929688 0.074219
vt 0.929688 0.074219
vt 0.929688 0.074219
vt 0.929688 0.074219
vt 0.929688 0.074219
vt 0.929688 0.074219
vt 0.929688 0.074219
vt 0.929688 0.074219
vt 0.944941 0.063980
vt 0.944941 0.063980
vt 0.944941 0.063980
vt 0.929688 0.074219
vt 0.929688 0.074219
vt 0.929688 0.074219
vt 0.944941 0.063980
vt 0.944941 0.063980
vt 0.947401 0.051676
vt 0.947401 0.051676
vt 0.947401 0.051676
vt 0.947401 0.051676
vt 0.947401 0.051676
vt 0.947401 0.051676
vt 0.940480 0.813980
vt 0.944941 0.063980
vt 0.944941 0.063980
vt 0.944941 0.063980
vt 0.944941 0.063980
vt 0.944941 0.063980
vt 0.940480 0.813980
vt 0.940480 0.068363
vt 0.940480 0.068363
vt 0.940480 0.068363
vt 0.940480 0.068363
vt 0.940480 0.068363
vt 0.940480 0.068363
vt 0.940480 0.068363
vt 0.940480 0.068363
vt 0.940480 0.068363
vt 0.940480 0.068363
vt 0.940480 0.068363
vt 0.940480 0.068363
vt 0.940480 0.068363
vt 0.940480 0.068363
vt 0.940480 0.068363
vt 0.940480 0.068363
vt 0.940480 0.068363
vt 0.940480 0.068363
vt 0.940480 0.068363
vt 0.940480 0.068363
vt 0.940480 0.068363
vt 0.940480 0.068363
vt 0.940480 0.068363
vt 0.440941 0.311981
vt 0.440941 0.311981
vt 0.440941 0.311981
vt 0.440941 0.311981
vt 0.440941 0.311981
vt 0.440941 0.311981
vt 0.940480 0.068363
vt 0.940480 0.068363
vt 0.940480 0.068363
vt 0.940480 0.068363
vt 0.940480 0.068363
vt 0.940480 0.068363
vt 0.940480 0.068363
vt 0.940480 0.068363
vt 0.940480 0.068363
vt 0.940480 0.068363
vt 0.940480 0.068363
vt 0.440941 0.311981
vt 0.440941 0.311981
vt 0.440941 0.311981
vt 0.440941 0.311981
vt 0.440941 0.311981
vt 0.440941 0.311981
vt 0.440941 0.311981
vt 0.440941 0.311981
vt 0.440941 0.311981
vt 0.440941 0.311981
vt 0.440941 0.311981
vt 0.440941 0.311981
vt 0.440941 0.311981
vt 0.440941 0.311981
vt 0.440941 0.311981
vt 0.440941 0.311981
vt 0.440941 0.311981
vt 0.440941 0.311981
vt 0.192402 0.068363
vt 0.192402 0.068363
vt 0.192402 0.068363
vt 0.440941 0.311981
vt 0.440941 0.311981
vt 0.192402 0.068363
vt 0.192402 0.068363
vt 0.192402 0.068363
vt 0.192402 0.068363
vt 0.192402 0.068363
vt 0.440941 0.311981
vt 0.440941 0.311981
vt 0.192402 0.068363
vt 0.192402 0.068363
vt 0.192402 0.068363
vt 0.192402 0.068363
vt 0.192402 0.068363
vt 0.440941 0.311981
vt 0.440941 0.311981
vt 0.192402 0.068363
vt 0.192402 0.068363
vt 0.192402 0.068363
vt 0.192402 0.068363
vt 0.192402 0.068363
vt 0.440941 0.311981
vt 0.440941 0.311981
vt 0.192402 0.068363
vt 0.192402 0.068363
vt 0.192402 0.068363
vt 0.192402 0.068363
vt 0.192402 0.068363
vt 0.440941 0.311981
vt 0.440941 0.311981
vt 0.192402 0.068363
vt 0.192402 0.068363
vt 0.192402 0.068363
vt 0.192402 0.068363
vt 0.192402 0.068363
vt 0.440941 0.311981
vt 0.440941 0.311981
vt 0.440941 0.311981
vt 0.192402 0.068363
vt 0.192402 0.068363
vt 0.192402 0.068363
vt 0.192402 0.068363
vt 0.192402 0.068363
vt 0.440941 0.311981
vt 0.440941 0.311981
vt 0.192402 0.068363
vt 0.192402 0.068363
vt 0.192402 0.068363
vt 0.192402 0.068363
vt 0.192402 0.068363
vt 0.440941 0.311981
vt 0.440941 0.311981
vt 0.192402 0.068363
vt 0.192402 0.068363
vt 0.940480 0.813980
vt 0.940480 0.813980
vt 0.940480 0.813980
vt 0.940480 0.813980
vt 0.940480 0.813980
vt 0.940480 0.813980
vt 0.940480 0.813980
vt 0.940480 0.813980
vt 0.940480 0.813980
vt 0.940480 0.813980
vt 0.940480 0.813980
vt 0.940480 0.813980
vt 0.940480 0.813980
vt 0.929688 0.074219
vt 0.929688 0.074219
vt 0.929688 0.074219
vt 0.940480 0.813980
vt 0.940480 0.813980
vt 0.929688 0.074219
vt 0.929688 0.074219
vt 0.929688 0.074219
vt 0.929688 0.074219
vt 0.929688 0.074219
vt 0.929688 0.074219
vt 0.929688 0.074219
vt 0.929688 0.074219
vt 0.929688 0.074219
vt 0.929688 0.074219
vt 0.929688 0.074219
vt 0.929688 0.074219
vt 0.929688 0.074219
vt 0.929688 0.074219
vt 0.929688 0.074219
vt 0.929688 0.074219
vt 0.929688 0.074219
vt 0.929688 0.074219
vt 0.944941 0.063980
vt 0.944941 0.063980
vt 0.929688 0.074219
vt 0.929688 0.074219
vt 0.929688 0.074219
vt 0.944941 0.063980
vt 0.947401 0.051676
vt 0.947401 0.051676
vt 0.947401 0.051676
vt 0.947401 0.051676
vt 0.947401 0.051676
vt 0.947401 0.051676
vt 0.940480 0.813980
vt 0.944941 0.063980
vt 0.944941 0.063980
vt 0.944941 0.063980
vt 0.940480 0.813980
vt 0.940480 0.068363
vt 0.940480 0.068363
vt 0.940480 0.068363
vt 0.940480 0.068363
vt 0.940480 0.068363
vt 0.940480 0.068363
vt 0.940480 0.068363
vt 0.940480 0.068363
vt 0.940480 0.068363
vt 0.940480 0.068363
vt 0.940480 0.068363
vt 0.940480 0.068363
vt 0.940480 0.068363
vt 0.940480 0.068363
vt 0.940480 0.068363
vt 0.940480 0.068363
vt 0.940480 0.068363
vt 0.940480 0.068363
vt 0.440941 0.311981
vt 0.440941 0.311981
vt 0.440941 0.311981
vt 0.440941 0.311981
vt 0.440941 0.311981
vt 0.440941 0.311981
vt 0.940480 0.068363
vt 0.940480 0.068363
vt 0.940480 0.068363
vt 0.940480 0.068363
vt 0.940480 0.068363
vt 0.940480 0.068363
vt 0.940480 0.068363
vt 0.440941 0.311981
vt 0.440941 0.311981
vt 0.440941 0.311981
vt 0.440941 0.311981
vt 0.440941 0.311981
vt 0.440941 0.311981
vt 0.440941 0.311981
vt 0.440941 0.311981
vt 0.440941 0.311981
vt 0.440941 0.311981
vt 0.440941 0.311981
vt 0.440941 0.311981
vt 0.440941 0.311981
vt 0.440941 0.311981
vt 0.440941 0.311981
vt 0.440941 0.311981
vt 0.440941 0.311981
vt 0.440941 0.311981
vt 0.192402 0.068363
vt 0.192402 0.068363
vt 0.192402 0.068363
vt 0.440941 0.311981
vt 0.440941 0.311981
vt 0.192402 0.068363
vt 0.192402 0.068363
vt 0.192402 0.068363
vt 0.192402 0.068363
vt 0.192402 0.068363
vt 0.440941 0.311981
vt 0.440941 0.311981
vt 0.192402 0.068363
vt 0.192402 0.068363
vt 0.192402 0.068363
vt 0.192402 0.068363
vt 0.192402 0.068363
vt 0.440941 0.311981
vt 0.440941 0.311981
vt 0.192402 0.068363
vt 0.192402 0.068363
vt 0.192402 0.068363
vt 0.192402 0.068363
vt 0.192402 0.068363
vt 0.440941 0.311981
vt 0.440941 0.311981
vt 0.192402 0.068363
vt 0.192402 0.068363
vt 0.192402 0.068363
vt 0.192402 0.068363
vt 0.192402 0.068363
vt 0.440941 0.311981
vt 0.440941 0.311981
vt 0.192402 0.068363
vt 0.192402 0.068363
vt 0.192402 0.068363
vt 0.192402 0.068363
vt 0.192402 0.068363
vt 0.440941 0.311981
vt 0.440941 0.311981
vt 0.440941 0.311981
vt 0.192402 0.068363
vt 0.192402 0.068363
vt 0.192402 0.068363
vt 0.192402 0.068363
vt 0.192402 0.068363
vt 0.440941 0.311981
vt 0.440941 0.311981
vt 0.192402 0.068363
vt 0.192402 0.068363
vt 0.192402 0.068363
vt 0.192402 0.068363
vt 0.192402 0.068363
vt 0.440941 0.311981
vt 0.440941 0.311981
vt 0.192402 0.068363
vt 0.192402 0.068363
vt 0.940480 0.813980
vt 0.929688 0.074219
vt 0.929688 0.074219
vt 0.944941 0.063980
vt 0.947401 0.051676
vt 0.947401 0.051676
vt 0.947401 0.051676
vt 0.947401 0.051676
vt 0.944941 0.063980
vt 0.440941 0.311981
vt 0.440941 0.311981
vt 0.940480 0.068363
vt 0.440941 0.311981
vt 0.440941 0.311981
vt 0.440941 0.311981
vt 0.440941 0.311981
vt 0.440941 0.311981
vt 0.440941 0.311981
vt 0.192402 0.068363
vt 0.192402 0.068363
vt 0.192402 0.068363
vt 0.192402 0.068363
vt 0.192402 0.068363
vt 0.192402 0.068363
vt 0.192402 0.068363
vt 0.192402 0.068363
vt 0.192402 0.068363
vt 0.940480 0.813980
vt 0.929688 0.074219
vt 0.929688 0.074219
vt 0.944941 0.063980
vt 0.947401 0.051676
vt 0.947401 0.051676
vt 0.947401 0.051676
vt 0.947401 0.051676
vt 0.944941 0.063980
vt 0.440941 0.311981
vt 0.440941 0.311981
vt 0.940480 0.068363
vt 0.440941 0.311981
vt 0.440941 0.311981
vt 0.440941 0.311981
vt 0.440941 0.311981
vt 0.440941 0.311981
vt 0.440941 0.311981
vt 0.192402 0.068363
vt 0.192402 0.068363
vt 0.192402 0.068363
vt 0.192402 0.068363
vt 0.192402 0.068363
vt 0.192402 0.068363
vt 0.192402 0.068363
vt 0.192402 0.068363
vt 0.192402 0.068363
vn 0.0000 1.0000 0.0000
vn 0.0000 0.0000 -1.0000
vn -1.0000 -0.0000 0.0000
vn 1.0000 0.0000 0.0000
vn 0.0000 0.9934 0.1143
vn 0.0000 0.9948 -0.1021
vn 0.0000 0.9213 0.3888
vn 0.0000 0.0000 1.0000
vn 0.0000 0.9934 -0.1143
vn 0.0000 0.9948 0.1021
vn 0.0000 0.9213 -0.3888
usemtl Default_OBJ
s 1
f 1/1/1 2/2/1 3/3/1
f 4/4/1 5/5/1 6/6/1
f 7/7/1 8/8/1 9/9/1
f 10/10/1 11/11/1 12/12/1
f 12/12/1 13/13/1 4/4/1
f 12/14/2 14/15/2 15/16/2
f 9/9/1 16/17/1 17/18/1
f 4/19/2 18/20/2 19/21/2
f 9/22/2 20/23/2 21/24/2
f 3/25/2 22/26/2 23/27/2
f 17/28/2 24/29/2 25/30/2
f 10/31/2 26/32/2 27/33/2
f 6/34/2 28/35/2 29/36/2
f 30/37/3 31/38/3 32/39/3
f 7/40/2 33/41/2 34/42/2
f 35/43/3 31/38/3 36/44/3
f 35/45/3 36/46/3 37/47/3
f 1/48/4 38/49/4 39/50/4
f 6/6/1 40/51/1 7/7/1
f 41/52/4 42/53/4 43/54/4
f 43/54/4 44/55/4 45/56/4
f 3/3/1 46/57/1 10/10/1
f 47/58/5 48/59/5 49/60/5
f 50/61/5 51/62/5 52/63/5
f 53/64/5 54/65/5 55/66/5
f 42/67/5 56/68/5 57/69/5
f 58/70/5 59/71/5 60/72/5
f 61/73/1 53/64/1 62/74/1
f 44/75/1 58/70/1 61/73/1
f 63/76/5 64/77/5 65/78/5
f 66/79/1 50/61/1 67/80/1
f 62/74/1 63/76/1 66/79/1
f 68/81/6 19/82/6 69/83/6
f 70/84/6 15/85/6 71/86/6
f 72/87/5 73/88/5 74/89/5
f 75/90/1 47/58/1 76/91/1
f 67/80/1 72/87/1 75/90/1
f 77/92/5 78/93/5 79/94/5
f 80/95/1 31/96/1 81/97/1
f 76/91/1 77/92/1 80/95/1
f 82/98/6 25/99/6 83/100/6
f 84/101/6 21/102/6 85/103/6
f 86/104/6 34/105/6 87/106/6
f 88/107/6 29/108/6 89/109/6
f 90/110/6 27/111/6 91/112/6
f 39/113/6 23/114/6 92/115/6
f 92/116/6 22/117/6 90/118/6
f 57/119/7 90/110/7 59/120/7
f 56/121/7 92/116/7 57/122/7
f 91/123/6 26/124/6 70/125/6
f 60/126/7 70/84/7 54/127/7
f 59/128/7 91/123/7 60/129/7
f 89/130/6 28/131/6 86/132/6
f 52/133/7 86/104/7 73/134/7
f 51/135/7 89/130/7 52/136/7
f 87/137/6 33/138/6 84/139/6
f 74/140/7 84/101/7 48/141/7
f 73/142/7 87/137/7 74/143/7
f 85/144/6 20/145/6 82/146/6
f 49/147/7 82/98/7 78/148/7
f 48/149/7 85/144/7 49/150/7
f 83/151/6 24/152/6 37/153/6
f 79/154/7 37/155/7 36/156/7
f 78/157/7 83/151/7 79/158/7
f 71/159/6 14/160/6 68/161/6
f 55/162/7 68/81/7 64/163/7
f 54/164/7 71/159/7 55/165/7
f 69/166/6 18/167/6 88/168/6
f 65/169/7 88/107/7 51/170/7
f 64/171/7 69/166/7 65/172/7
f 93/173/1 94/174/1 95/175/1
f 96/176/1 97/177/1 98/178/1
f 99/179/1 100/180/1 101/181/1
f 102/182/1 103/183/1 104/184/1
f 105/185/1 104/184/1 97/177/1
f 106/186/8 107/187/8 104/188/8
f 108/189/1 101/181/1 109/190/1
f 110/191/8 111/192/8 97/193/8
f 112/194/8 113/195/8 101/196/8
f 114/197/8 115/198/8 95/199/8
f 116/200/8 117/201/8 109/202/8
f 118/203/8 119/204/8 103/205/8
f 120/206/8 121/207/8 98/208/8
f 122/209/3 30/37/3 123/210/3
f 124/211/8 125/212/8 100/213/8
f 126/214/3 122/209/3 123/210/3
f 127/215/3 128/216/3 126/217/3
f 129/218/4 130/219/4 94/220/4
f 131/221/1 98/178/1 100/180/1
f 132/222/4 133/223/4 134/224/4
f 44/55/4 134/224/4 45/56/4
f 135/225/1 95/175/1 103/183/1
f 136/226/9 137/227/9 138/228/9
f 139/229/9 140/230/9 141/231/9
f 142/232/9 143/233/9 144/234/9
f 145/235/9 146/236/9 132/237/9
f 147/238/9 148/239/9 149/240/9
f 144/234/1 61/73/1 62/74/1
f 149/240/1 44/75/1 61/73/1
f 150/241/9 151/242/9 152/243/9
f 141/231/1 66/79/1 67/80/1
f 152/243/1 62/74/1 66/79/1
f 110/244/10 153/245/10 154/246/10
f 106/247/10 155/248/10 156/249/10
f 157/250/9 158/251/9 159/252/9
f 138/228/1 75/90/1 76/91/1
f 159/252/1 67/80/1 75/90/1
f 160/253/9 161/254/9 162/255/9
f 122/256/1 80/95/1 81/97/1
f 162/255/1 76/91/1 80/95/1
f 116/257/10 163/258/10 164/259/10
f 112/260/10 165/261/10 166/262/10
f 124/263/10 167/264/10 168/265/10
f 120/266/10 169/267/10 170/268/10
f 118/269/10 171/270/10 172/271/10
f 114/272/10 129/273/10 173/274/10
f 115/275/10 173/276/10 171/277/10
f 171/270/11 145/278/11 148/279/11
f 173/276/11 146/280/11 145/281/11
f 119/282/10 172/283/10 155/284/10
f 155/248/11 147/285/11 143/286/11
f 172/283/11 148/287/11 147/288/11
f 121/289/10 170/290/10 167/291/10
f 167/264/11 139/292/11 158/293/11
f 170/290/11 140/294/11 139/295/11
f 125/296/10 168/297/10 165/298/10
f 165/261/11 157/299/11 137/300/11
f 168/297/11 158/301/11 157/302/11
f 113/303/10 166/304/10 163/305/10
f 163/258/11 136/306/11 161/307/11
f 166/304/11 137/308/11 136/309/11
f 117/310/10 164/311/10 127/312/10
f 127/313/11 160/314/11 128/315/11
f 164/311/11 161/316/11 160/317/11
f 107/318/10 156/319/10 153/320/10
f 153/245/11 142/321/11 151/322/11
f 156/319/11 143/323/11 142/324/11
f 111/325/10 154/326/10 169/327/10
f 169/267/11 150/328/11 140/329/11
f 154/326/11 151/330/11 150/331/11
f 1/1/1 174/332/1 2/2/1
f 4/4/1 13/13/1 5/5/1
f 7/7/1 40/51/1 8/8/1
f 10/10/1 46/57/1 11/11/1
f 12/12/1 11/11/1 13/13/1
f 26/32/2 10/31/2 15/16/2
f 10/31/2 12/14/2 15/16/2
f 9/9/1 8/8/1 16/17/1
f 14/15/2 12/14/2 19/21/2
f 12/14/2 4/19/2 19/21/2
f 33/41/2 7/40/2 21/24/2
f 7/40/2 9/22/2 21/24/2
f 38/333/2 1/334/2 23/27/2
f 1/334/2 3/25/2 23/27/2
f 20/23/2 9/22/2 25/30/2
f 9/22/2 17/28/2 25/30/2
f 22/26/2 3/25/2 27/33/2
f 3/25/2 10/31/2 27/33/2
f 18/20/2 4/19/2 29/36/2
f 4/19/2 6/34/2 29/36/2
f 30/37/3 81/335/3 31/38/3
f 28/35/2 6/34/2 34/42/2
f 6/34/2 7/40/2 34/42/2
f 35/43/3 32/39/3 31/38/3
f 24/336/3 17/337/3 37/47/3
f 17/337/3 35/45/3 37/47/3
f 56/338/4 41/339/4 39/50/4
f 41/339/4 1/48/4 39/50/4
f 6/6/1 5/5/1 40/51/1
f 41/52/4 56/340/4 42/53/4
f 43/54/4 42/53/4 44/55/4
f 3/3/1 2/2/1 46/57/1
f 78/93/5 77/92/5 49/60/5
f 77/92/5 47/58/5 49/60/5
f 73/88/5 72/87/5 52/63/5
f 72/87/5 50/61/5 52/63/5
f 64/77/5 63/76/5 55/66/5
f 63/76/5 53/64/5 55/66/5
f 59/71/5 58/70/5 57/69/5
f 58/70/5 42/67/5 57/69/5
f 54/65/5 53/64/5 60/72/5
f 53/64/5 58/70/5 60/72/5
f 61/73/1 58/70/1 53/64/1
f 44/75/1 42/67/1 58/70/1
f 51/62/5 50/61/5 65/78/5
f 50/61/5 63/76/5 65/78/5
f 66/79/1 63/76/1 50/61/1
f 62/74/1 53/64/1 63/76/1
f 68/81/6 14/341/6 19/82/6
f 70/84/6 26/342/6 15/85/6
f 48/59/5 47/58/5 74/89/5
f 47/58/5 72/87/5 74/89/5
f 75/90/1 72/87/1 47/58/1
f 67/80/1 50/61/1 72/87/1
f 36/343/5 31/96/5 79/94/5
f 31/96/5 77/92/5 79/94/5
f 80/95/1 77/92/1 31/96/1
f 76/91/1 47/58/1 77/92/1
f 82/98/6 20/344/6 25/99/6
f 84/101/6 33/345/6 21/102/6
f 86/104/6 28/346/6 34/105/6
f 88/107/6 18/347/6 29/108/6
f 90/110/6 22/348/6 27/111/6
f 39/113/6 38/349/6 23/114/6
f 92/116/6 23/350/6 22/117/6
f 57/119/7 92/115/7 90/110/7
f 56/121/7 39/351/7 92/116/7
f 91/123/6 27/352/6 26/124/6
f 60/126/7 91/112/7 70/84/7
f 59/128/7 90/118/7 91/123/7
f 89/130/6 29/353/6 28/131/6
f 52/133/7 89/109/7 86/104/7
f 51/135/7 88/168/7 89/130/7
f 87/137/6 34/354/6 33/138/6
f 74/140/7 87/106/7 84/101/7
f 73/142/7 86/132/7 87/137/7
f 85/144/6 21/355/6 20/145/6
f 49/147/7 85/103/7 82/98/7
f 48/149/7 84/139/7 85/144/7
f 83/151/6 25/356/6 24/152/6
f 79/154/7 83/100/7 37/155/7
f 78/157/7 82/146/7 83/151/7
f 71/159/6 15/357/6 14/160/6
f 55/162/7 71/86/7 68/81/7
f 54/164/7 70/125/7 71/159/7
f 69/166/6 19/358/6 18/167/6
f 65/169/7 69/83/7 88/107/7
f 64/171/7 68/161/7 69/166/7
f 93/173/1 175/359/1 94/174/1
f 96/176/1 105/185/1 97/177/1
f 99/179/1 131/221/1 100/180/1
f 102/182/1 135/225/1 103/183/1
f 105/185/1 102/182/1 104/184/1
f 104/188/8 103/205/8 106/186/8
f 103/205/8 119/204/8 106/186/8
f 108/189/1 99/179/1 101/181/1
f 97/193/8 104/188/8 110/191/8
f 104/188/8 107/187/8 110/191/8
f 101/196/8 100/213/8 112/194/8
f 100/213/8 125/212/8 112/194/8
f 95/199/8 94/360/8 114/197/8
f 94/360/8 130/361/8 114/197/8
f 109/202/8 101/196/8 116/200/8
f 101/196/8 113/195/8 116/200/8
f 103/205/8 95/199/8 118/203/8
f 95/199/8 115/198/8 118/203/8
f 98/208/8 97/193/8 120/206/8
f 97/193/8 111/192/8 120/206/8
f 122/209/3 81/335/3 30/37/3
f 100/213/8 98/208/8 124/211/8
f 98/208/8 121/207/8 124/211/8
f 126/214/3 128/362/3 122/209/3
f 126/217/3 109/363/3 127/215/3
f 109/363/3 117/364/3 127/215/3
f 94/220/4 133/365/4 129/218/4
f 133/365/4 146/366/4 129/218/4
f 131/221/1 96/176/1 98/178/1
f 132/222/4 146/367/4 133/223/4
f 44/55/4 132/222/4 134/224/4
f 135/225/1 93/173/1 95/175/1
f 138/228/9 162/255/9 136/226/9
f 162/255/9 161/254/9 136/226/9
f 141/231/9 159/252/9 139/229/9
f 159/252/9 158/251/9 139/229/9
f 144/234/9 152/243/9 142/232/9
f 152/243/9 151/242/9 142/232/9
f 132/237/9 149/240/9 145/235/9
f 149/240/9 148/239/9 145/235/9
f 149/240/9 144/234/9 147/238/9
f 144/234/9 143/233/9 147/238/9
f 144/234/1 149/240/1 61/73/1
f 149/240/1 132/237/1 44/75/1
f 152/243/9 141/231/9 150/241/9
f 141/231/9 140/230/9 150/241/9
f 141/231/1 152/243/1 66/79/1
f 152/243/1 144/234/1 62/74/1
f 110/244/10 107/368/10 153/245/10
f 106/247/10 119/369/10 155/248/10
f 159/252/9 138/228/9 157/250/9
f 138/228/9 137/227/9 157/250/9
f 138/228/1 159/252/1 75/90/1
f 159/252/1 141/231/1 67/80/1
f 162/255/9 122/256/9 160/253/9
f 122/256/9 128/370/9 160/253/9
f 122/256/1 162/255/1 80/95/1
f 162/255/1 138/228/1 76/91/1
f 116/257/10 113/371/10 163/258/10
f 112/260/10 125/372/10 165/261/10
f 124/263/10 121/373/10 167/264/10
f 120/266/10 111/374/10 169/267/10
f 118/269/10 115/375/10 171/270/10
f 114/272/10 130/376/10 129/273/10
f 115/275/10 114/377/10 173/276/10
f 171/270/11 173/274/11 145/278/11
f 173/276/11 129/378/11 146/280/11
f 119/282/10 118/379/10 172/283/10
f 155/248/11 172/271/11 147/285/11
f 172/283/11 171/277/11 148/287/11
f 121/289/10 120/380/10 170/290/10
f 167/264/11 170/268/11 139/292/11
f 170/290/11 169/327/11 140/294/11
f 125/296/10 124/381/10 168/297/10
f 165/261/11 168/265/11 157/299/11
f 168/297/11 167/291/11 158/301/11
f 113/303/10 112/382/10 166/304/10
f 163/258/11 166/262/11 136/306/11
f 166/304/11 165/298/11 137/308/11
f 117/310/10 116/383/10 164/311/10
f 127/313/11 164/259/11 160/314/11
f 164/311/11 163/305/11 161/316/11
f 107/318/10 106/384/10 156/319/10
f 153/245/11 156/249/11 142/321/11
f 156/319/11 155/284/11 143/323/11
f 111/325/10 110/385/10 154/326/10
f 169/267/11 154/246/11 150/328/11
f 154/326/11 153/320/11 151/330/11
