mtllib Models/Track/Corner/Corner.mtl

v 4.000000 0.000000 -3.000000
v 3.000000 0.000001 -4.000000
v 3.000000 0.000000 -3.000000
v -2.000000 -0.000000 3.000000
v -3.000000 -0.000000 2.000000
v -3.000000 -0.000000 3.000000
v -3.000000 0.000000 -2.000000
v -3.000000 0.358650 -2.000000
v -3.000000 0.358650 -2.500000
v 0.000000 0.000001 -4.000000
v 1.000000 0.119146 -4.000000
v 1.000000 0.000001 -4.000000
v 2.000000 0.000001 -4.000000
v 2.000000 0.252384 -4.000000
v -3.000000 0.000000 -3.000000
v -3.000000 0.358650 -3.000000
v -3.000000 0.358651 -3.500000
v 4.000000 0.000000 0.000000
v 4.000000 0.119145 1.000000
v 4.000000 -0.000000 1.000000
v 3.000000 0.371132 -4.000000
v 3.000000 0.371132 -3.500000
v 4.000000 -0.000000 2.000000
v 4.000000 0.252383 2.000000
v -3.000000 0.000000 -1.000000
v -4.000000 0.000000 -2.000000
v -4.000000 0.000000 -1.000000
v -3.000000 0.000000 0.000000
v -4.000000 0.000000 0.000000
v -3.000000 0.358650 2.000000
v -3.000000 0.358650 1.500000
v -4.000000 0.000001 -4.000000
v -4.000000 0.000000 -3.000000
v 2.500000 0.433068 -4.000000
v -3.000000 -0.000000 1.000000
v -3.000000 0.358650 1.000000
v -3.000000 0.358650 0.500000
v -1.000000 -0.000001 4.000000
v -2.000000 -0.000001 4.000000
v 0.000000 -0.000001 4.000000
v -1.000000 -0.000000 3.000000
v -4.000000 -0.000000 2.000000
v -4.000000 -0.000000 3.000000
v -3.000000 -0.000001 4.000000
v -4.000000 -0.000001 4.000000
v -4.000000 -0.000000 1.000000
v 4.000000 0.420550 2.500000
v 4.000000 0.358650 3.000000
v -3.000000 0.358650 0.000000
v -3.000000 0.358650 -0.500000
v 3.000000 -0.000001 4.000000
v 2.000000 -0.000000 3.000000
v 2.000000 -0.000001 4.000000
v 4.000000 -0.000001 4.000000
v 3.000000 -0.000000 3.000000
v -2.000000 -0.000000 2.000000
v -2.000000 0.358650 2.000000
v -2.500000 0.358650 2.000000
v 1.000000 -0.000001 4.000000
v 0.000000 -0.000000 3.000000
v 1.000000 -0.000000 3.000000
v -3.000000 0.358651 -4.000000
v -2.500000 0.420551 -4.000000
v -2.000000 0.252384 -4.000000
v 2.000000 0.358650 3.000000
v 1.500000 0.358650 3.000000
v -2.000000 0.358650 3.000000
v -2.000000 0.358650 2.500000
v -3.000000 0.358650 -1.000000
v -3.000000 0.358650 -1.500000
v 4.000000 0.371131 -3.000000
v 4.000000 0.433067 -2.500000
v 4.000000 0.252383 -2.000000
v -2.000000 0.000001 -4.000000
v -1.000000 0.119146 -4.000000
v -1.000000 0.000001 -4.000000
v 0.000000 0.119146 -4.000000
v 1.000000 0.358650 3.000000
v 0.500000 0.358650 3.000000
v 4.000000 0.000000 -2.000000
v 4.000000 0.119145 -1.000000
v 4.000000 0.000000 -1.000000
v 4.000000 0.119145 0.000000
v 0.000000 0.358650 3.000000
v -0.500000 0.358650 3.000000
v -1.000000 0.358650 3.000000
v -1.500000 0.358650 3.000000
v 4.000000 -0.000000 3.000000
v 3.500000 0.358650 3.000000
v 3.000000 0.358650 3.000000
v 2.500000 0.358650 3.000000
v 3.000000 0.371131 -3.000000
v 3.500000 0.371131 -3.000000
v 0.000000 0.119145 -3.000000
v -1.000000 0.119145 -3.000000
v 0.000000 0.119145 1.000000
v -1.000000 0.119145 0.000000
v -1.000000 0.252383 1.000000
v 3.000000 0.119145 0.000000
v 3.000000 0.119145 1.000000
v 2.000000 0.119145 1.000000
v 1.000000 0.119145 0.000000
v 1.000000 0.119145 1.000000
v 2.000000 0.420550 2.500000
v 1.500000 0.252383 2.000000
v 1.500000 0.420550 2.500000
v 3.500000 0.252383 2.000000
v 3.500000 0.420550 2.500000
v -2.000000 0.252383 0.500000
v -2.500000 0.420550 0.000000
v -2.500000 0.420550 0.500000
v 0.000000 0.420550 2.500000
v -0.500000 0.252383 2.000000
v -0.500000 0.420550 2.500000
v -2.000000 0.252384 -3.500000
v -2.500000 0.420551 -3.500000
v -2.000000 0.252383 -1.500000
v -2.500000 0.420550 -2.000000
v -2.500000 0.420550 -1.500000
v 0.000000 0.119145 -1.000000
v -1.000000 0.119145 -2.000000
v -1.000000 0.119145 -1.000000
v 2.000000 0.252384 -3.500000
v 2.000000 0.119145 -1.000000
v 1.000000 0.119145 -2.000000
v 1.000000 0.119145 -1.000000
v 3.500000 0.252383 -2.000000
v 3.000000 0.119145 -1.000000
v 3.000000 0.252383 -2.000000
v 2.500000 0.252383 -2.000000
v 2.000000 0.119145 0.000000
v 0.000000 0.119145 -2.000000
v 0.000000 0.119145 0.000000
v 1.000000 0.119145 -3.000000
v 2.000000 0.252383 -2.500000
v 2.000000 0.252383 -3.000000
v -2.000000 0.252383 -2.000000
v -2.000000 0.252383 -1.000000
v -2.000000 0.252383 -0.500000
v -2.500000 0.420550 -1.000000
v -2.500000 0.420550 -0.500000
v -2.000000 0.252383 -2.500000
v -2.500000 0.420550 -3.000000
v -2.500000 0.420550 -2.500000
v -1.000000 0.420550 2.500000
v -1.500000 0.420550 2.000000
v -1.500000 0.420550 2.500000
v -2.000000 0.420550 1.500000
v -2.500000 0.420550 1.000000
v -2.500000 0.420550 1.500000
v 3.000000 0.420550 2.500000
v 2.500000 0.252383 2.000000
v 2.500000 0.420550 2.500000
v 1.000000 0.420550 2.500000
v 0.500000 0.252383 2.000000
v 0.500000 0.420550 2.500000
v -1.000000 0.252383 1.500000
v -1.500000 0.252383 1.000000
v -1.500000 0.420550 1.500000
v -2.000000 0.252383 -3.000000
v 2.500000 0.433068 -3.500000
v 3.000000 0.433067 -2.500000
v 2.500000 0.433067 -3.000000
v 2.500000 0.433067 -2.500000
v 3.500000 0.433067 -2.500000
v 2.000000 0.252383 -2.000000
v -2.000000 0.252383 1.000000
v -1.000000 0.252383 2.000000
v 0.000000 0.252383 2.000000
v 2.000000 0.252383 2.000000
v -2.000000 0.252383 0.000000
v 3.000000 0.252383 2.000000
v 1.000000 0.252383 2.000000
v 4.000000 0.000001 -4.000000
v -3.000000 0.000001 -4.000000
vt 0.943356 0.803838
vt 0.943356 0.803838
vt 0.943356 0.803838
vt 0.943356 0.803838
vt 0.943356 0.803838
vt 0.943356 0.803838
vt 0.950323 0.061981
vt 0.950323 0.061981
vt 0.950323 0.061981
vt 0.950323 0.061981
vt 0.950323 0.061981
vt 0.950323 0.061981
vt 0.950323 0.061981
vt 0.950323 0.061981
vt 0.950323 0.061981
vt 0.950323 0.061981
vt 0.950323 0.061981
vt 0.950323 0.061981
vt 0.950323 0.061981
vt 0.950323 0.061981
vt 0.950323 0.061981
vt 0.950323 0.061981
vt 0.950323 0.061981
vt 0.950323 0.061981
vt 0.950323 0.061981
vt 0.943356 0.803838
vt 0.943356 0.803838
vt 0.943356 0.803838
vt 0.943356 0.803838
vt 0.943356 0.803838
vt 0.950323 0.061981
vt 0.950323 0.061981
vt 0.950323 0.061981
vt 0.943356 0.803838
vt 0.943356 0.803838
vt 0.943356 0.803838
vt 0.943356 0.803838
vt 0.950323 0.061981
vt 0.950323 0.061981
vt 0.950323 0.061981
vt 0.950323 0.061981
vt 0.943356 0.803838
vt 0.943356 0.803838
vt 0.943356 0.803838
vt 0.943356 0.803838
vt 0.943356 0.803838
vt 0.943356 0.803838
vt 0.943356 0.803838
vt 0.943356 0.803838
vt 0.943356 0.803838
vt 0.943356 0.803838
vt 0.950323 0.061981
vt 0.950323 0.061981
vt 0.950323 0.061981
vt 0.950323 0.061981
vt 0.950323 0.061981
vt 0.943356 0.803838
vt 0.943356 0.803838
vt 0.943356 0.803838
vt 0.943356 0.803838
vt 0.943356 0.803838
vt 0.950323 0.061981
vt 0.950323 0.061981
vt 0.950323 0.061981
vt 0.943356 0.803838
vt 0.943356 0.803838
vt 0.943356 0.803838
vt 0.950323 0.061981
vt 0.950323 0.061981
vt 0.950323 0.061981
vt 0.950323 0.061981
vt 0.950323 0.061981
vt 0.950323 0.061981
vt 0.950323 0.061981
vt 0.950323 0.061981
vt 0.950323 0.061981
vt 0.950323 0.061981
vt 0.950323 0.061981
vt 0.950323 0.061981
vt 0.950323 0.061981
vt 0.950323 0.061981
vt 0.950323 0.061981
vt 0.950323 0.061981
vt 0.950323 0.061981
vt 0.950323 0.061981
vt 0.950323 0.061981
vt 0.950323 0.061981
vt 0.950323 0.061981
vt 0.950323 0.061981
vt 0.950323 0.061981
vt 0.950323 0.061981
vt 0.950323 0.061981
vt 0.950323 0.061981
vt 0.950323 0.061981
vt 0.950323 0.061981
vt 0.950323 0.061981
vt 0.950323 0.061981
vt 0.950323 0.061981
vt 0.950323 0.061981
vt 0.950323 0.061981
vt 0.950323 0.061981
vt 0.950323 0.061981
vt 0.950323 0.061981
vt 0.950323 0.061981
vt 0.950323 0.061981
vt 0.950323 0.061981
vt 0.950323 0.061981
vt 0.938140 0.070030
vt 0.938140 0.070030
vt 0.938140 0.070030
vt 0.938140 0.070030
vt 0.938140 0.070030
vt 0.938140 0.070030
vt 0.938140 0.070030
vt 0.938140 0.070030
vt 0.938140 0.070030
vt 0.938140 0.070030
vt 0.938140 0.070030
vt 0.938140 0.070030
vt 0.190453 0.063337
vt 0.190453 0.063337
vt 0.190453 0.063337
vt 0.190453 0.063337
vt 0.190453 0.063337
vt 0.190453 0.063337
vt 0.190453 0.063337
vt 0.190453 0.063337
vt 0.190453 0.063337
vt 0.190453 0.063337
vt 0.190453 0.063337
vt 0.190453 0.063337
vt 0.190453 0.063337
vt 0.190453 0.063337
vt 0.190453 0.063337
vt 0.190453 0.063337
vt 0.190453 0.063337
vt 0.190453 0.063337
vt 0.938140 0.070030
vt 0.938140 0.070030
vt 0.938140 0.070030
vt 0.938140 0.070030
vt 0.938140 0.070030
vt 0.938140 0.070030
vt 0.938140 0.070030
vt 0.938140 0.070030
vt 0.938140 0.070030
vt 0.938140 0.070030
vt 0.938140 0.070030
vt 0.938140 0.070030
vt 0.938140 0.070030
vt 0.938140 0.070030
vt 0.938140 0.070030
vt 0.938140 0.070030
vt 0.938140 0.070030
vt 0.938140 0.070030
vt 0.938140 0.070030
vt 0.938140 0.070030
vt 0.938140 0.070030
vt 0.938140 0.070030
vt 0.938140 0.070030
vt 0.938140 0.070030
vt 0.938140 0.070030
vt 0.938140 0.070030
vt 0.938140 0.070030
vt 0.190453 0.063337
vt 0.190453 0.063337
vt 0.190453 0.063337
vt 0.190453 0.063337
vt 0.190453 0.063337
vt 0.190453 0.063337
vt 0.190453 0.063337
vt 0.190453 0.063337
vt 0.190453 0.063337
vt 0.190453 0.063337
vt 0.190453 0.063337
vt 0.190453 0.063337
vt 0.190453 0.063337
vt 0.190453 0.063337
vt 0.190453 0.063337
vt 0.190453 0.063337
vt 0.190453 0.063337
vt 0.190453 0.063337
vt 0.938140 0.070030
vt 0.938140 0.070030
vt 0.938140 0.070030
vt 0.938140 0.070030
vt 0.190453 0.063337
vt 0.190453 0.063337
vt 0.190453 0.063337
vt 0.938140 0.070030
vt 0.938140 0.070030
vt 0.938140 0.070030
vt 0.938140 0.070030
vt 0.435384 0.317569
vt 0.435384 0.317569
vt 0.435384 0.317569
vt 0.435384 0.317569
vt 0.435384 0.317569
vt 0.435384 0.317569
vt 0.435384 0.317569
vt 0.435384 0.317569
vt 0.435384 0.317569
vt 0.190453 0.063337
vt 0.190453 0.063337
vt 0.190453 0.063337
vt 0.435384 0.317569
vt 0.435384 0.317569
vt 0.190453 0.063337
vt 0.190453 0.063337
vt 0.190453 0.063337
vt 0.190453 0.063337
vt 0.190453 0.063337
vt 0.435384 0.317569
vt 0.435384 0.317569
vt 0.435384 0.317569
vt 0.190453 0.063337
vt 0.190453 0.063337
vt 0.190453 0.063337
vt 0.190453 0.063337
vt 0.190453 0.063337
vt 0.435384 0.317569
vt 0.435384 0.317569
vt 0.190453 0.063337
vt 0.938140 0.070030
vt 0.938140 0.070030
vt 0.435384 0.317569
vt 0.435384 0.317569
vt 0.435384 0.317569
vt 0.190453 0.063337
vt 0.435384 0.317569
vt 0.435384 0.317569
vt 0.938140 0.070030
vt 0.938140 0.070030
vt 0.435384 0.317569
vt 0.435384 0.317569
vt 0.435384 0.317569
vt 0.190453 0.063337
vt 0.190453 0.063337
vt 0.435384 0.317569
vt 0.435384 0.317569
vt 0.435384 0.317569
vt 0.435384 0.317569
vt 0.435384 0.317569
vt 0.190453 0.063337
vt 0.190453 0.063337
vt 0.435384 0.317569
vt 0.435384 0.317569
vt 0.435384 0.317569
vt 0.435384 0.317569
vt 0.435384 0.317569
vt 0.190453 0.063337
vt 0.190453 0.063337
vt 0.190453 0.063337
vt 0.435384 0.317569
vt 0.435384 0.317569
vt 0.435384 0.317569
vt 0.435384 0.317569
vt 0.190453 0.063337
vt 0.190453 0.063337
vt 0.190453 0.063337
vt 0.435384 0.317569
vt 0.435384 0.317569
vt 0.435384 0.317569
vt 0.435384 0.317569
vt 0.435384 0.317569
vt 0.190453 0.063337
vt 0.190453 0.063337
vt 0.435384 0.317569
vt 0.435384 0.317569
vt 0.435384 0.317569
vt 0.435384 0.317569
vt 0.435384 0.317569
vt 0.190453 0.063337
vt 0.190453 0.063337
vt 0.435384 0.317569
vt 0.435384 0.317569
vt 0.435384 0.317569
vt 0.435384 0.317569
vt 0.435384 0.317569
vt 0.190453 0.063337
vt 0.190453 0.063337
vt 0.435384 0.317569
vt 0.435384 0.317569
vt 0.435384 0.317569
vt 0.435384 0.317569
vt 0.435384 0.317569
vt 0.190453 0.063337
vt 0.190453 0.063337
vt 0.435384 0.317569
vt 0.435384 0.317569
vt 0.435384 0.317569
vt 0.435384 0.317569
vt 0.190453 0.063337
vt 0.190453 0.063337
vt 0.435384 0.317569
vt 0.435384 0.317569
vt 0.435384 0.317569
vt 0.435384 0.317569
vt 0.435384 0.317569
vt 0.190453 0.063337
vt 0.190453 0.063337
vt 0.435384 0.317569
vt 0.435384 0.317569
vt 0.435384 0.317569
vt 0.435384 0.317569
vt 0.190453 0.063337
vt 0.190453 0.063337
vt 0.435384 0.317569
vt 0.435384 0.317569
vt 0.435384 0.317569
vt 0.435384 0.317569
vt 0.435384 0.317569
vt 0.190453 0.063337
vt 0.190453 0.063337
vt 0.435384 0.317569
vt 0.435384 0.317569
vt 0.943356 0.803838
vt 0.943356 0.803838
vt 0.950323 0.061981
vt 0.943356 0.803838
vt 0.943356 0.803838
vt 0.950323 0.061981
vt 0.190453 0.063337
vt 0.190453 0.063337
vt 0.190453 0.063337
vt 0.190453 0.063337
vt 0.190453 0.063337
vt 0.190453 0.063337
vt 0.938140 0.070030
vt 0.938140 0.070030
vt 0.190453 0.063337
vt 0.190453 0.063337
vt 0.190453 0.063337
vt 0.190453 0.063337
vt 0.190453 0.063337
vt 0.190453 0.063337
vt 0.938140 0.070030
vt 0.938140 0.070030
vt 0.938140 0.070030
vt 0.938140 0.070030
vt 0.938140 0.070030
vt 0.190453 0.063337
vt 0.435384 0.317569
vt 0.435384 0.317569
vt 0.435384 0.317569
vt 0.190453 0.063337
vt 0.190453 0.063337
vt 0.190453 0.063337
vt 0.190453 0.063337
vt 0.938140 0.070030
vt 0.435384 0.317569
vt 0.435384 0.317569
vt 0.938140 0.070030
vt 0.435384 0.317569
vt 0.435384 0.317569
vt 0.435384 0.317569
vt 0.435384 0.317569
vt 0.435384 0.317569
vt 0.435384 0.317569
vt 0.435384 0.317569
vt 0.435384 0.317569
vt 0.435384 0.317569
vt 0.435384 0.317569
vt 0.435384 0.317569
vt 0.435384 0.317569
vn 0.0000 1.0000 0.0000
vn -1.0000 0.0000 0.0000
vn 0.0000 0.0000 -1.0000
vn 1.0000 0.0000 0.0000
vn 0.0000 0.0000 1.0000
vn 0.1309 0.9827 -0.1309
vn 0.0000 0.9478 -0.3188
vn 0.3188 0.9478 0.0000
vn -0.1321 0.9912 0.0000
vn 0.0000 0.9912 0.1321
vn 0.1321 0.9912 0.0000
vn 0.0000 0.9912 -0.1321
vn 0.3037 0.9031 -0.3037
vn 0.1229 0.9924 0.0000
vn 0.0000 0.9924 -0.1229
vn 0.0000 0.9405 0.3399
vn -0.3399 0.9405 0.0000
vn 0.0881 0.9922 -0.0881
vn -0.1219 0.9850 0.1219
vn 0.0000 0.9924 0.1229
vn -0.1229 0.9924 0.0000
vn -0.1309 0.9827 0.1309
vn 0.1220 0.9850 -0.1220
vn -0.3218 0.8905 0.3218
usemtl Material.001
s 1
f 1/1/1 2/2/1 3/3/1
f 4/4/1 5/5/1 6/6/1
f 7/7/2 8/8/2 9/9/2
f 10/10/3 11/11/3 12/12/3
f 13/13/3 11/11/3 14/14/3
f 15/15/2 16/16/2 17/17/2
f 18/18/4 19/19/4 20/20/4
f 2/21/4 21/22/4 22/23/4
f 23/24/4 19/19/4 24/25/4
f 25/26/1 26/27/1 27/28/1
f 28/29/1 27/28/1 29/30/1
f 5/31/2 30/32/2 31/33/2
f 15/34/1 32/35/1 33/36/1
f 7/37/1 33/36/1 26/27/1
f 14/14/3 34/38/3 21/22/3
f 35/39/2 36/40/2 37/41/2
f 38/42/1 4/4/1 39/43/1
f 40/44/1 41/45/1 38/42/1
f 6/6/1 42/46/1 43/47/1
f 44/48/1 43/47/1 45/49/1
f 39/43/1 6/6/1 44/48/1
f 35/50/1 29/30/1 46/51/1
f 5/5/1 46/51/1 42/46/1
f 24/25/4 47/52/4 48/53/4
f 28/54/2 49/55/2 50/56/2
f 51/57/1 52/58/1 53/59/1
f 54/60/1 55/61/1 51/57/1
f 56/62/5 57/63/5 58/64/5
f 59/65/1 60/66/1 40/44/1
f 53/59/1 61/67/1 59/65/1
f 62/68/3 63/69/3 64/70/3
f 52/71/5 65/72/5 66/73/5
f 4/74/2 67/75/2 68/76/2
f 25/77/2 69/78/2 70/79/2
f 71/80/4 72/81/4 73/82/4
f 74/83/3 75/84/3 76/85/3
f 76/85/3 77/86/3 10/10/3
f 61/87/5 78/88/5 79/89/5
f 80/90/4 81/91/4 82/92/4
f 82/92/4 83/93/4 18/18/4
f 60/94/5 84/95/5 85/96/5
f 41/97/5 86/98/5 87/99/5
f 88/100/5 48/53/5 89/101/5
f 55/102/5 90/103/5 91/104/5
f 3/105/3 92/106/3 93/107/3
f 94/108/1 75/109/1 95/110/1
f 96/111/6 97/112/6 98/113/6
f 19/114/1 99/115/1 100/116/1
f 101/117/1 102/118/1 103/119/1
f 104/120/7 105/121/7 106/122/7
f 47/123/7 107/124/7 108/125/7
f 109/126/8 110/127/8 111/128/8
f 112/129/7 113/130/7 114/131/7
f 115/132/8 63/133/8 116/134/8
f 117/135/8 118/136/8 119/137/8
f 120/138/1 121/139/1 122/140/1
f 123/141/9 14/142/9 11/143/9
f 124/144/1 125/145/1 126/146/1
f 81/147/10 73/148/10 127/149/10
f 128/150/10 129/151/10 130/152/10
f 99/115/1 124/144/1 131/153/1
f 83/154/1 128/150/1 99/115/1
f 126/146/1 132/155/1 120/138/1
f 102/118/1 120/138/1 133/156/1
f 131/153/1 126/146/1 102/118/1
f 134/157/1 77/158/1 94/108/1
f 125/145/1 94/108/1 132/155/1
f 135/159/9 136/160/9 134/157/9
f 121/139/11 137/161/11 117/162/11
f 122/140/11 138/163/11 139/164/11
f 133/156/1 122/140/1 97/112/1
f 139/165/8 140/166/8 141/167/8
f 142/168/8 143/169/8 144/170/8
f 145/171/1 146/172/1 147/173/1
f 148/174/1 149/175/1 150/176/1
f 151/177/7 152/178/7 153/179/7
f 154/180/7 155/181/7 156/182/7
f 103/119/1 133/156/1 96/111/1
f 155/183/12 103/119/12 96/111/12
f 105/184/12 101/117/12 103/119/12
f 100/116/1 131/153/1 101/117/1
f 152/185/12 100/116/12 101/117/12
f 107/186/12 19/114/12 100/116/12
f 157/187/13 158/188/13 159/189/13
f 75/109/11 64/190/11 115/191/11
f 95/110/11 160/192/11 142/193/11
f 132/155/1 95/110/1 121/139/1
f 22/194/14 34/195/14 161/196/14
f 162/197/1 163/198/1 164/199/1
f 72/200/15 93/201/15 165/202/15
f 165/203/15 92/204/15 162/205/15
f 127/206/16 162/197/16 129/207/16
f 73/208/16 165/203/16 127/209/16
f 164/210/17 136/211/17 135/212/17
f 130/213/1 135/214/1 166/215/1
f 129/216/16 164/210/16 130/217/16
f 161/218/17 14/219/17 123/220/17
f 163/198/17 123/221/17 136/222/17
f 92/204/14 161/218/14 163/223/14
f 113/224/18 96/111/18 157/225/18
f 159/226/7 167/227/7 148/228/7
f 146/172/19 148/174/19 57/229/19
f 168/230/8 159/226/8 146/231/8
f 158/232/18 97/112/18 109/233/18
f 156/234/7 169/235/7 112/236/7
f 79/237/20 112/129/20 84/238/20
f 78/239/20 156/234/20 79/240/20
f 153/241/7 170/242/7 104/243/7
f 91/244/20 104/120/20 65/245/20
f 90/246/20 153/241/20 91/247/20
f 150/248/21 36/249/21 31/250/21
f 58/251/1 31/252/1 30/253/1
f 57/254/20 150/248/20 58/255/20
f 147/256/21 57/254/21 68/257/21
f 87/258/1 68/259/1 67/260/1
f 86/261/20 147/256/20 87/262/20
f 144/263/21 16/264/21 9/265/21
f 118/136/21 9/266/21 8/267/21
f 137/268/8 144/263/8 118/269/8
f 141/270/21 69/271/21 50/272/21
f 110/127/21 50/273/21 49/274/21
f 171/275/8 141/270/8 110/276/8
f 119/277/21 8/278/21 70/279/21
f 140/166/21 70/280/21 69/281/21
f 138/282/8 119/277/8 140/283/8
f 116/284/21 62/285/21 17/286/21
f 143/169/21 17/287/21 16/288/21
f 160/289/8 116/284/8 143/290/8
f 114/291/7 168/230/7 145/292/7
f 85/293/20 145/171/20 86/294/20
f 84/295/20 114/291/20 85/296/20
f 111/297/21 49/298/21 37/299/21
f 149/175/21 37/300/21 36/301/21
f 167/227/8 111/297/8 149/302/8
f 108/303/7 172/304/7 151/305/7
f 89/306/20 151/177/20 90/307/20
f 48/308/20 108/303/20 89/309/20
f 106/310/7 173/311/7 154/312/7
f 66/313/20 154/180/20 78/314/20
f 65/315/20 106/310/20 66/316/20
f 1/1/1 174/317/1 2/2/1
f 4/4/1 56/318/1 5/5/1
f 16/16/2 15/15/2 9/9/2
f 15/15/2 7/7/2 9/9/2
f 10/10/3 77/86/3 11/11/3
f 13/13/3 12/12/3 11/11/3
f 62/68/2 175/319/2 17/17/2
f 175/319/2 15/15/2 17/17/2
f 18/18/4 83/93/4 19/19/4
f 92/106/4 3/105/4 22/23/4
f 3/105/4 2/21/4 22/23/4
f 23/24/4 20/20/4 19/19/4
f 25/26/1 7/37/1 26/27/1
f 28/29/1 25/26/1 27/28/1
f 36/40/2 35/39/2 31/33/2
f 35/39/2 5/31/2 31/33/2
f 15/34/1 175/320/1 32/35/1
f 7/37/1 15/34/1 33/36/1
f 21/22/3 2/21/3 14/14/3
f 2/21/3 13/13/3 14/14/3
f 49/55/2 28/54/2 37/41/2
f 28/54/2 35/39/2 37/41/2
f 38/42/1 41/45/1 4/4/1
f 40/44/1 60/66/1 41/45/1
f 6/6/1 5/5/1 42/46/1
f 44/48/1 6/6/1 43/47/1
f 39/43/1 4/4/1 6/6/1
f 35/50/1 28/29/1 29/30/1
f 5/5/1 35/50/1 46/51/1
f 48/53/4 88/100/4 24/25/4
f 88/100/4 23/24/4 24/25/4
f 69/78/2 25/77/2 50/56/2
f 25/77/2 28/54/2 50/56/2
f 51/57/1 55/61/1 52/58/1
f 54/60/1 88/321/1 55/61/1
f 30/32/5 5/31/5 58/64/5
f 5/31/5 56/62/5 58/64/5
f 59/65/1 61/67/1 60/66/1
f 53/59/1 52/58/1 61/67/1
f 64/70/3 74/83/3 175/319/3
f 175/319/3 62/68/3 64/70/3
f 78/88/5 61/87/5 66/73/5
f 61/87/5 52/71/5 66/73/5
f 57/63/2 56/62/2 68/76/2
f 56/62/2 4/74/2 68/76/2
f 8/8/2 7/7/2 70/79/2
f 7/7/2 25/77/2 70/79/2
f 73/82/4 80/90/4 1/322/4
f 1/322/4 71/80/4 73/82/4
f 74/83/3 64/70/3 75/84/3
f 76/85/3 75/84/3 77/86/3
f 84/95/5 60/94/5 79/89/5
f 60/94/5 61/87/5 79/89/5
f 80/90/4 73/82/4 81/91/4
f 82/92/4 81/91/4 83/93/4
f 86/98/5 41/97/5 85/96/5
f 41/97/5 60/94/5 85/96/5
f 67/75/5 4/74/5 87/99/5
f 4/74/5 41/97/5 87/99/5
f 90/103/5 55/102/5 89/101/5
f 55/102/5 88/100/5 89/101/5
f 65/72/5 52/71/5 91/104/5
f 52/71/5 55/102/5 91/104/5
f 71/80/3 1/322/3 93/107/3
f 1/322/3 3/105/3 93/107/3
f 94/108/1 77/158/1 75/109/1
f 96/111/1 133/156/1 97/112/1
f 19/114/1 83/154/1 99/115/1
f 101/117/1 131/153/1 102/118/1
f 104/120/7 170/323/7 105/121/7
f 47/123/7 24/324/7 107/124/7
f 109/126/8 171/325/8 110/127/8
f 112/129/7 169/326/7 113/130/7
f 115/132/8 64/327/8 63/133/8
f 117/135/8 137/328/8 118/136/8
f 120/138/1 132/155/1 121/139/1
f 11/143/9 134/157/9 123/141/9
f 134/157/9 136/160/9 123/141/9
f 124/144/22 166/329/22 125/145/22
f 129/151/10 128/150/10 127/149/10
f 128/150/10 81/147/10 127/149/10
f 166/329/10 124/144/10 130/152/10
f 124/144/10 128/150/10 130/152/10
f 99/115/1 128/150/1 124/144/1
f 83/154/1 81/147/1 128/150/1
f 126/146/1 125/145/1 132/155/1
f 102/118/1 126/146/1 120/138/1
f 131/153/1 124/144/1 126/146/1
f 134/157/1 11/143/1 77/158/1
f 125/145/1 134/157/1 94/108/1
f 134/157/9 125/145/9 135/159/9
f 125/145/9 166/329/9 135/159/9
f 117/162/11 138/163/11 122/140/11
f 122/140/11 121/139/11 117/162/11
f 139/164/11 171/330/11 97/112/11
f 97/112/11 122/140/11 139/164/11
f 133/156/1 120/138/1 122/140/1
f 139/165/8 138/331/8 140/166/8
f 142/168/8 160/332/8 143/169/8
f 145/171/13 168/333/13 146/172/13
f 148/174/13 167/334/13 149/175/13
f 151/177/7 172/335/7 152/178/7
f 154/180/7 173/336/7 155/181/7
f 103/119/1 102/118/1 133/156/1
f 96/111/12 169/337/12 155/183/12
f 155/183/12 173/338/12 103/119/12
f 103/119/12 173/338/12 105/184/12
f 105/184/12 170/339/12 101/117/12
f 100/116/1 99/115/1 131/153/1
f 101/117/12 170/339/12 152/185/12
f 152/185/12 172/340/12 100/116/12
f 100/116/12 172/340/12 107/186/12
f 107/186/12 24/341/12 19/114/12
f 157/187/1 98/342/1 158/188/1
f 115/191/11 160/192/11 95/110/11
f 95/110/11 75/109/11 115/191/11
f 142/193/11 137/161/11 121/139/11
f 121/139/11 95/110/11 142/193/11
f 132/155/1 94/108/1 95/110/1
f 22/194/14 21/343/14 34/195/14
f 162/197/23 92/344/23 163/198/23
f 72/200/15 71/345/15 93/201/15
f 165/203/15 93/346/15 92/204/15
f 127/206/16 165/202/16 162/197/16
f 73/208/16 72/347/16 165/203/16
f 164/210/17 163/223/17 136/211/17
f 130/213/24 164/199/24 135/214/24
f 129/216/16 162/205/16 164/210/16
f 161/218/17 34/348/17 14/219/17
f 163/198/17 161/196/17 123/221/17
f 92/204/14 22/349/14 161/218/14
f 157/225/1 168/350/1 113/224/1
f 113/224/12 169/337/12 96/111/12
f 96/111/11 98/113/11 157/225/11
f 159/226/7 158/351/7 167/227/7
f 146/172/1 159/189/1 148/174/1
f 168/230/8 157/352/8 159/226/8
f 109/233/1 167/353/1 158/232/1
f 158/232/12 98/113/12 97/112/12
f 97/112/11 171/330/11 109/233/11
f 156/234/7 155/354/7 169/235/7
f 79/237/20 156/182/20 112/129/20
f 78/239/20 154/312/20 156/234/20
f 153/241/7 152/355/7 170/242/7
f 91/244/20 153/179/20 104/120/20
f 90/246/20 151/305/20 153/241/20
f 150/248/21 149/302/21 36/249/21
f 58/251/19 150/176/19 31/252/19
f 57/254/20 148/228/20 150/248/20
f 147/256/21 146/231/21 57/254/21
f 87/258/19 147/173/19 68/259/19
f 86/261/20 145/292/20 147/256/20
f 144/263/21 143/290/21 16/264/21
f 118/136/21 144/170/21 9/266/21
f 137/268/8 142/356/8 144/263/8
f 141/270/21 140/283/21 69/271/21
f 110/127/21 141/167/21 50/273/21
f 171/275/8 139/357/8 141/270/8
f 119/277/21 118/269/21 8/278/21
f 140/166/21 119/137/21 70/280/21
f 138/282/8 117/358/8 119/277/8
f 116/284/21 63/359/21 62/285/21
f 143/169/21 116/134/21 17/287/21
f 160/289/8 115/360/8 116/284/8
f 114/291/7 113/361/7 168/230/7
f 85/293/20 114/131/20 145/171/20
f 84/295/20 112/236/20 114/291/20
f 111/297/21 110/276/21 49/298/21
f 149/175/21 111/128/21 37/300/21
f 167/227/8 109/362/8 111/297/8
f 108/303/7 107/363/7 172/304/7
f 89/306/20 108/125/20 151/177/20
f 48/308/20 47/364/20 108/303/20
f 106/310/7 105/365/7 173/311/7
f 66/313/20 106/122/20 154/180/20
f 65/315/20 104/243/20 106/310/20
